<?xml version="1.0" encoding="utf-8"?>
<!-- Svg Vector Icons : http://www.onlinewebfonts.com/icon -->
<!DOCTYPE svg PUBLIC "-//W3C//DTD SVG 1.1//EN" "http://www.w3.org/Graphics/SVG/1.1/DTD/svg11.dtd">
<svg version="1.1" xmlns="http://www.w3.org/2000/svg" xmlns:xlink="http://www.w3.org/1999/xlink" x="0px" y="0px" viewBox="0 0 256 256" enable-background="new 0 0 256 256" xml:space="preserve">
<metadata> Svg Vector Icons : http://www.onlinewebfonts.com/icon </metadata>
<g><g><g><path fill="#000000" d="M129.5,11c-2.4,1.2-3.9,3-5.5,6.7l-1.2,2.6l-6.3,0.6C93,23.1,70.5,32,56.4,44.7c-9.9,8.9-16.1,18-21.1,31c-3,7.7-3.5,9.3-3.5,12c0,4.2,2,6.6,5.6,6.6c2.7,0,4.1-0.8,6.9-3.8c2.1-2.2,2.5-2.4,6.2-3.2c5.1-1,22.3-1.5,28.8-0.7c2.6,0.3,6.5,1,8.7,1.6c3.5,0.9,4.1,1.2,4.7,2.5c1.8,3.4,3,5,4.9,5.7c2.4,1,3.4,1,5.3,0c1.9-1,3-2.2,4.1-4.8c0.8-1.8,1.1-2,3.9-2.9c6.1-1.9,9.7-2.2,22.8-2.2c11.3,0,13.1,0.1,17.6,1.1c5.3,1.2,7.7,2.1,7.7,3.1c0,1.2,3,5,4.5,5.7c4,1.9,7.6,0,9.8-4.8c0.8-1.8,1.1-2,3.9-2.9c6.1-1.9,9.7-2.2,22.8-2.2c16.2,0,19.3,0.5,22.1,3.7c3.5,3.9,7,5,10.3,3.3c2.8-1.4,3.6-5.9,1.9-10.4c-4.3-11.9-6.7-17-10.7-23.1c-15-22.4-40.3-35.9-73.9-39.2l-5.7-0.6l-1.5-3.1C139.4,10.8,134.6,8.5,129.5,11z M134.8,17.9c1.2,1.4,2.1,3.5,2.8,6.4l0.6,2.7l5.2,0.3c15.1,0.9,30.6,4.5,42.3,10c18,8.3,31.9,22.5,38.5,39.5c1,2.7,2.2,5.6,2.6,6.5c1.1,2.5,0.8,2.8-0.7,0.7c-1.3-1.8-1.8-2-4.7-2.7c-6.4-1.4-9.6-1.8-18.5-2c-13.5-0.4-23.3,0.8-30.9,3.8c-3.6,1.4-3.9,1.6-4.4,3.4c-1.1,3.5-1,3.4-1.6,2.6c-0.2-0.4-0.7-1.6-1-2.7c-0.5-1.9-0.7-2-3.7-3.2c-8-3.1-17.8-4.3-31.5-4c-11.9,0.3-19.2,1.6-25.6,4.4c-2.3,1-2.5,1.2-3,3.2c-0.3,1.2-0.7,2.3-0.9,2.4c-0.4,0.2-1.2-1.5-1.7-3.6c-0.2-1-0.9-1.5-3.5-2.5c-8-3.1-13.5-3.9-28-3.9c-9,0-13,0.2-16.4,0.8c-6.5,1.1-9.4,2.1-9.8,3.1c-0.1,0.5-0.6,1.2-1,1.6c-0.7,0.5-0.8,0.5-0.5-0.3c1-3.2,4-10.4,6.2-14.6c12-23.4,37.7-38.5,71.5-42.1c3.8-0.4,7.9-0.7,9-0.7c2.1,0,2.1,0,2.7-2C130.8,18,132.7,15.7,134.8,17.9z"/><path fill="#000000" d="M126.3,99.3c-13.1,1.9-22,4.9-31.4,10.8c-11.6,7.2-21.1,17.8-27.2,30.1l-2.1,4.3l1.5,0.1c0.9,0.1,2.7-0.4,4.5-1.2c2.7-1.3,3.2-1.7,5-4.8l2-3.3l3.3,1l3.4,1.1l2.7-0.9c2.4-0.8,12.1-1.7,18.8-1.8c1.4,0,1.9-0.2,2.2-1.1c5-12.2,7.1-16,11.9-20.9c4.7-4.7,7.9-6.3,12.6-6.4c2.9,0,3.8,0.2,6.6,1.6c5.3,2.6,10,8,14.2,16.2c1.9,3.7,4.5,10.4,4.1,10.7c-0.7,0.7-13.1,1.4-24.5,1.5h-13.4l1.3,1.1c0.7,0.6,1.7,2.1,2.1,3.4l0.8,2.3l3.6,0.3c5.5,0.5,23.6-0.4,30.6-1.5l1.7-0.3l0.8,3.7c1,4.9,2,12.6,2.5,18.6l0.3,4.9h-1.8c-1.7,0-1.7,0-1.7,2.1c0,1.1-0.1,2.8-0.3,3.6c-0.3,1.5-0.3,1.5,1.7,1.5h2l-0.3,4.9c-0.4,6-1.4,13.7-2.5,18.6l-0.8,3.7l-1.5-0.2c-3.2-0.5-11.4-1.2-19.2-1.5l-8.2-0.3v1.6c0,1.7-1.5,4.5-2.8,5.2c-0.6,0.3,1.1,0.4,5.4,0.5c5.9,0,16.1,0.6,21.6,1.2c2.5,0.3,2.5,0.3,2.2,1.6c-0.7,3-4.7,11.4-7.2,15.1c-8.7,13.3-19.4,16-29,7.2c-4.5-4.2-8-9.6-11.4-18.1l-2-5l-3-0.3c-1.7-0.2-4.8-0.3-7-0.4c-2.8,0-5.4-0.4-8.4-1.3l-4.4-1.2l-3.6,1.2l-3.6,1.2l-2-3.4l-2-3.4l-4.5-1.8c-2.5-1-4.6-1.8-4.6-1.7c-0.4,0.4,4.5,9.7,7.2,13.7c11,16.5,27.1,27.2,46.9,31.5c6.6,1.4,20.2,1.6,27.1,0.2c29.6-5.5,52.8-28.2,59.2-57.7c1.4-6.3,1.7-18.5,0.7-25.3c-3.6-24.2-18.9-45.1-40.9-55.6c-10.4-5-18.2-6.9-29.9-7.1C131.3,99.2,127.1,99.2,126.3,99.3z M113.5,110.1c-5,6.8-7.7,11.7-10.3,18.7c-1,2.6-2,4.8-2.3,4.9c-0.8,0.2-9.6-1.7-14-3.1l-3.8-1.2l4-4c6.4-6.4,14.3-11.6,23-15C114.2,108.8,114.5,108.8,113.5,110.1z M163.3,113.1c5.2,2.7,11.5,7.1,16.2,11.6c3.3,3.1,4.3,4.4,4,4.8c-0.6,0.6-14.9,4.3-16.5,4.3c-0.9,0-1.3-0.6-2.5-4c-2-5.5-5.5-12.4-8.6-16.8c-1.4-2-2.6-3.7-2.6-3.8C153.2,108.9,160.2,111.5,163.3,113.1z M190.1,137.5c4.9,7.8,8.6,18.7,9.6,28.3l0.3,3.2h-14.2h-14.3l-0.6-7.2c-0.3-4-1-9.8-1.6-13c-1.6-8.8-2-7.8,4.1-9.1c2.9-0.6,7.2-1.8,9.5-2.5c2.4-0.8,4.7-1.4,5.1-1.4C188.6,135.7,189.4,136.5,190.1,137.5z M199.7,179.4c-0.4,4.1-1.8,10.5-3.1,14.4c-1.1,3.5-5.7,13-7.1,14.7l-0.9,1.2l-4.9-1.5c-2.7-0.8-7.3-2-10.1-2.7c-2.9-0.6-5.3-1.3-5.4-1.4c-0.1-0.1,0.2-2.6,0.7-5.4c1.1-5.8,1.8-11,2.2-18l0.3-4.6h14.3H200L199.7,179.4z M102.8,215.3c2.6,7.3,5.8,13.1,10.8,19.9l0.8,1.1l-3.5-1.3c-8.5-3-16-7.8-22.9-14.4c-2.6-2.5-4.5-4.7-4.3-4.9c0.2-0.2,3.3-1.1,6.8-2C101.7,210.7,101,210.7,102.8,215.3z M175.8,213.3c6.1,1.6,8,2.2,8,2.8c0,0.7-6.9,7-10.9,10c-2,1.5-5.1,3.5-6.9,4.5c-3.1,1.7-12.3,5.6-12.6,5.3c0-0.1,1-1.8,2.5-3.9c3.1-4.3,6.7-11.3,8.6-16.8l1.4-4l2.3,0.3C169.4,211.8,172.9,212.6,175.8,213.3z"/><path fill="#000000" d="M94.4,138.9c-0.5,0.1-2.1,0.4-3.6,0.7c-1.4,0.3-6.8,2.3-11.9,4.5l-9.3,3.9l-6.4,0.3c-7.6,0.4-13.2,1.3-17,2.8c-3.5,1.3-7.5,5.2-9.5,9.4c-1.5,3-1.7,3.2-5.1,5c-9.1,4.7-12.8,12-9.5,18.7c1.5,3,3.8,5,7.8,7l3.1,1.5l13.3,0.2l13.3,0.2l13.5,5.6c18.9,7.9,17.6,7.6,35.5,7.7c16.1,0,17.3-0.1,18.6-2.6c1.6-3.1,0.5-5.6-3.8-8.7l-2.9-2l14.3-0.2c15.8-0.3,16.2-0.3,19.1-3.4c0.8-0.9,1.8-2.2,2-3c0.3-0.9,0.5-6.6,0.5-15.3c0-11.1-0.1-14.4-0.7-16.4c-1-3.1-3.6-6-6.2-6.7c-2.7-0.7-9-0.7-10.9,0.1c-2.3,0.9-4.8,4-6.2,7.9l-1.3,3.2l-5.6-1.8c-3.1-1-7.4-2.3-9.6-2.9c-2.2-0.6-4.2-1.2-4.4-1.4c-0.2-0.2,1.3-1.6,3.5-3.1c5.4-3.8,6.9-6.5,5-9.2c-1.5-2.1-3.2-2.4-14.3-2.4C100,138.7,94.9,138.8,94.4,138.9z M108.7,146.1c-0.3,0.2-2,1.5-3.9,2.8l-3.3,2.4l-3.3-0.7c-1.8-0.3-5.3-0.9-7.8-1.2l-4.5-0.6l1.7-0.9c3.2-1.6,7-2.2,14.4-2.2C106,145.7,109,145.9,108.7,146.1z M147.8,155.2c1.7,1.1,1.9,2.7,2,15.3c0.1,12.3,0.1,12.7-0.9,14l-1,1.3l-24.9,0.1L98.2,186l9.1,6.4c5,3.5,9.1,6.6,9.2,6.9c0,0.7-22.3,0-25.1-0.8c-1.3-0.4-8.8-3.3-16.4-6.4l-14-5.7l-12.9-0.2c-12.1-0.2-13-0.3-15.4-1.3c-6.3-2.8-6.5-7.6-0.3-11.7c1.5-1,3.8-2.2,5.1-2.7c3.1-1.2,3.3-1.5,4.4-4.4c1-2.8,2.5-5.3,4.1-6.8c3.7-3.4,17-4.7,35.3-3.5c13.3,0.9,27.9,4,45,9.6c4.8,1.6,8.8,2.8,8.9,2.7c0.1-0.1,1.1-2.7,2.4-5.9c1.2-3.1,2.6-6.1,3-6.6c0.5-0.6,1.4-0.8,3.6-0.8C146,154.8,147.5,155,147.8,155.2z"/></g></g></g>
</svg>